<svg xmlns="http://www.w3.org/2000/svg" width="176" height="176"><defs><clipPath id="a"><rect width="176" height="176" rx="4" transform="translate(709 2896)" fill="#0845a7"/></clipPath><style>.d{fill:#fff}</style></defs><g transform="translate(-709 -2896)" clip-path="url(#a)"><g opacity=".15"><path class="d" d="M762.861 3104.914h7.73v7.73h-7.73zm-19.325 0h7.73v7.73h-7.73zm19.325-23.19h7.73v7.73h-7.73zm-19.325 0h7.73v7.73h-7.73zm19.325-29.191h7.73v7.73h-7.73zm-19.325 0h7.73v7.73h-7.73zm19.325-20.141h7.73v7.73h-7.73zm-19.325 0h7.73v7.73h-7.73zm19.325-20.19h7.73v7.73h-7.73zm-19.325 0h7.73v7.73h-7.73z"/><path class="d" d="M716.481 3128.055v-129.628l61.791-37.065V2896.3h162.283v231.755h7.73v7.73H708.8v-7.73zm127.448.05h30.92v-46.332h-30.92zm-57.877 0h50.2v-54.111h46.331v54.061h50.246V2904.03H786.052v224.07zm-7.73 0V2970.38l-54.062 32.457V3128.1z"/><path class="d" d="M925.094 3081.724v30.92h-30.92v-30.92zm-23.19 23.19h15.46v-15.46h-15.46v15.46zm-77.252-23.19v30.92h-30.92v-30.92zm-23.19 23.19h15.46v-15.46h-15.46zm123.632-77.301v30.92h-30.92v-30.92zm-23.19 23.24h15.46v-15.46h-15.46v15.46zm-77.252-23.24v30.92h-30.92v-30.92zm-23.19 23.24h15.46v-15.46h-15.46zm123.632-77.301v30.92h-30.92v-30.92zm-23.19 23.19h15.46v-15.46h-15.46v15.46zm-77.252-23.19v30.92h-30.92v-30.92zm-23.19 23.19h15.46v-15.46h-15.46zm123.632-77.252v30.92h-30.92v-30.92zm-23.19 23.19h15.46v-15.46h-15.46v15.46zm-77.252-23.19v30.92h-30.92v-30.92zm-23.19 23.19h15.46v-15.46h-15.46zm73.386 84.933v30.92h-30.92v-30.92zm-23.14 23.24h15.46v-15.46h-15.46zm23.14-77.301v30.92h-30.92v-30.92zm-23.14 23.19h15.46v-15.46h-15.46zm23.14-77.252v30.92h-30.92v-30.92zm-23.14 23.19h15.46v-15.46h-15.46z"/></g></g></svg>