<svg xmlns="http://www.w3.org/2000/svg" width="47.022" height="50"><path d="M44.096 23.707V8.422a1.439 1.439 0 00-.156-.632 1.386 1.386 0 00.156-.467 1.466 1.466 0 00-1.063-1.409L22.521.055a1.475 1.475 0 00-.8 0L1.209 5.915a1.465 1.465 0 000 2.818l7.726 2.207v1.734a4.343 4.343 0 002.358 3.9 25.432 25.432 0 0021.652 0 4.344 4.344 0 002.358-3.9V10.94l5.859-1.674v14.441a4.388 4.388 0 00-2.93 4.125v2.93a1.464 1.464 0 001.464 1.464h5.86a1.464 1.464 0 001.465-1.465v-2.93a4.388 4.388 0 00-2.925-4.124z" fill="#34a1fe"/><path d="M34.089 19.402a27.928 27.928 0 01-24.236 0 6.771 6.771 0 01-.977-.673 14.778 14.778 0 007.159 12.038s2.056.972 2.7 1.154a11.741 11.741 0 003.237.505 11.986 11.986 0 003.963-.747c.675-.24 1.97-.9 1.97-.9a14.778 14.778 0 007.163-12.041 6.791 6.791 0 01-.979.664zm-12.116 15.95a14.532 14.532 0 01-3.425-.45l3.425 5.137 3.405-5.132a14.539 14.539 0 01-3.405.445zm8.431-2.624c-.026.017-.055.03-.081.047l-1.232 1.848c0 .068-5.617 8.469-5.654 8.525v6.856H42.48a1.464 1.464 0 001.465-1.465 16.066 16.066 0 00-13.541-15.811zm3.287 11.416h-2.93a1.465 1.465 0 010-2.93h2.93a1.465 1.465 0 010 2.93zM13.595 32.75c-.024-.016-.05-.027-.074-.043A16.08 16.08 0 000 48.535 1.464 1.464 0 001.465 50h19.043v-6.856c-6.639-9.975-5.284-7.938-6.913-10.394z" fill="#0845a7"/></svg>