<svg xmlns="http://www.w3.org/2000/svg" width="50" height="50"><defs><style>.a{fill:#0845a7}.b{fill:#34a1fe}</style></defs><path class="a" d="M30.103 19.756a7.25 7.25 0 100 10.251 7.252 7.252 0 000-10.251zM5.606 11.223a5.581 5.581 0 002.723-.705 1.54 1.54 0 00.141.164l8.117 8.114a10.481 10.481 0 012.185-2.216l-8.1-8.1a1.524 1.524 0 00-.164-.14 5.606 5.606 0 10-4.9 2.882zm38.697 27.475a5.584 5.584 0 00-2.723.705 1.584 1.584 0 00-.141-.164l-8.161-8.159a10.5 10.5 0 01-2.216 2.185l8.177 8.174a1.526 1.526 0 00.164.14 5.606 5.606 0 104.9-2.882zm0 0"/><path class="b" d="M23.408 6.882a1.549 1.549 0 00-.059.419v7.346a10.5 10.5 0 013.112-.021V7.301a1.575 1.575 0 00-.039-.344 3.628 3.628 0 10-3.014-.075zm3.136 36.104a1.558 1.558 0 00.058-.416v-7.454a10.5 10.5 0 01-3.112.021v7.433a1.555 1.555 0 00.048.377 3.622 3.622 0 103.006.039zm0 0"/><path class="a" d="M31.095 16.517a10.551 10.551 0 012.208 2.193l8.092-8.09a1.53 1.53 0 00.124-.141 5.6 5.6 0 10-2.152-2.206 1.536 1.536 0 00-.172.146zM18.918 33.29a10.487 10.487 0 01-2.224-2.177L8.47 39.33a1.541 1.541 0 00-.141.164 5.6 5.6 0 102.177 2.177 1.528 1.528 0 00.164-.14zm0 0"/><path class="b" d="M42.774 26.545a1.541 1.541 0 00.335-.037 3.624 3.624 0 10-.046-3.047 1.571 1.571 0 00-.289-.028h-7.536a10.5 10.5 0 01-.032 3.112zM7.221 23.433a1.55 1.55 0 00-.284.027 3.624 3.624 0 10-.046 3.049 1.567 1.567 0 00.33.036h7.524a10.5 10.5 0 01-.032-3.112zm0 0"/></svg>