<svg xmlns="http://www.w3.org/2000/svg" width="50" height="50"><defs><style>.a{fill:#34a1fe}.b{fill:#0845a7}</style></defs><path class="a" d="M41.211 20.605H50v17.578h-8.789z"/><path class="b" d="M41.211 41.113v1.465a4.395 4.395 0 008.789 0v-1.465zm8.326-26.176l-2.626-5.241a1.525 1.525 0 00-2.621 0l-2.621 5.241a4.416 4.416 0 00-.458 1.965v.774H50v-.774a4.416 4.416 0 00-.463-1.965z"/><path class="a" d="M24.902 2.93h-1.713a4.4 4.4 0 00-8.288 0h-1.717a4.4 4.4 0 00-4.395 4.394v1.465h20.508V7.324a4.4 4.4 0 00-4.395-4.394z"/><path class="b" d="M33.691 5.859h-1.464v4.395a1.464 1.464 0 01-1.465 1.465H7.324a1.464 1.464 0 01-1.465-1.465V5.859H4.395A4.4 4.4 0 000 10.254v35.351A4.4 4.4 0 004.395 50h29.3a4.4 4.4 0 004.395-4.395V10.254a4.4 4.4 0 00-4.399-4.395zM17.149 37.852l-5.859 5.859a1.464 1.464 0 01-2.071 0l-2.93-2.93A1.465 1.465 0 018.36 38.71l1.894 1.894 4.824-4.824a1.465 1.465 0 112.071 2.071zm0-10.352l-5.859 5.859a1.464 1.464 0 01-2.071 0l-2.93-2.93a1.465 1.465 0 012.071-2.07l1.894 1.894 4.824-4.824a1.465 1.465 0 112.071 2.071zm0-10.254l-5.859 5.86a1.464 1.464 0 01-2.071 0l-2.93-2.93a1.465 1.465 0 012.071-2.071l1.894 1.894 4.824-4.824a1.465 1.465 0 112.071 2.071zm13.613 23.965h-8.789a1.465 1.465 0 010-2.93h8.789a1.465 1.465 0 010 2.93zm0-10.352h-8.789a1.465 1.465 0 010-2.93h8.789a1.465 1.465 0 010 2.93zm0-10.254h-8.789a1.465 1.465 0 010-2.93h8.789a1.465 1.465 0 010 2.93z"/></svg>