<svg xmlns="http://www.w3.org/2000/svg" width="111.704" height="29.001"><path d="M43.48.636h7.04v2.176h-4.86v2.5h3.9v2.176h-3.9v4.672h-2.18zm8.64-.24h2.176v1.92H52.12zm0 3.12h2.176v8.64H52.12zm9.3-.256a3.016 3.016 0 012.268.776 3.36 3.36 0 01.928 1.64 8.016 8.016 0 01.18 1.632v4.848h-2.212v-4.08a7.5 7.5 0 00-.1-1.232 2.144 2.144 0 00-.508-1.056 1.56 1.56 0 00-1.252-.48 1.818 1.818 0 00-1.3.516 2.67 2.67 0 00-.544 1.948v4.384h-2.2v-8.64h1.936v.888a3.333 3.333 0 011.192-.844 4.069 4.069 0 011.608-.3zm12.352 1.584a2.573 2.573 0 01.292.876 8.968 8.968 0 01.06 1.156v5.28h-1.9V11.1a3.516 3.516 0 01-1.264.992 4.149 4.149 0 01-1.68.3 3.243 3.243 0 01-1.548-.348 2.416 2.416 0 01-.992-.948 2.646 2.646 0 01-.34-1.328 2.768 2.768 0 01.44-1.592 2.866 2.866 0 011.448-1.016 8.253 8.253 0 011.368-.356q.808-.148 2.328-.372a1.209 1.209 0 00-.444-.892 1.9 1.9 0 00-1.14-.284 2.254 2.254 0 00-1.048.256 1.352 1.352 0 00-.68.8l-1.968-.624a3.218 3.218 0 011.256-1.764 4.163 4.163 0 012.432-.648q2.552 0 3.376 1.568zM71.74 9.532a3.34 3.34 0 00.22-1.336q-1.128.192-1.656.3a6.187 6.187 0 00-.888.248 1.853 1.853 0 00-.684.428.815.815 0 00-.212.564.829.829 0 00.324.692 1.419 1.419 0 00.892.252 2.249 2.249 0 00.968-.2 2.218 2.218 0 00.668-.46 2.011 2.011 0 00.364-.488zm9.184-6.272a3.016 3.016 0 012.268.776 3.36 3.36 0 01.928 1.64 8.017 8.017 0 01.18 1.632v4.848h-2.212v-4.08a7.5 7.5 0 00-.1-1.232 2.144 2.144 0 00-.508-1.056 1.56 1.56 0 00-1.252-.48 1.818 1.818 0 00-1.3.516 2.67 2.67 0 00-.544 1.948v4.384h-2.2v-8.64h1.936v.888a3.333 3.333 0 011.192-.844 4.069 4.069 0 011.608-.3zm9.1 9.136a4.3 4.3 0 01-2.284-.59 3.9 3.9 0 01-1.488-1.628 5.177 5.177 0 01-.516-2.34 5.066 5.066 0 01.532-2.348 3.967 3.967 0 011.512-1.624 4.338 4.338 0 012.28-.59 4.576 4.576 0 011.82.348 3.465 3.465 0 011.344 1 3.6 3.6 0 01.724 1.532l-2.176.576a2.015 2.015 0 00-.664-1.044 1.674 1.674 0 00-1.08-.38 1.707 1.707 0 00-1.488.7 3.09 3.09 0 00-.5 1.832 3.008 3.008 0 00.512 1.844 1.727 1.727 0 001.472.684 1.7 1.7 0 001.1-.32 1.941 1.941 0 00.6-.976l2.224.464a3.7 3.7 0 01-1.392 2.12 4.186 4.186 0 01-2.532.74zm5.44-12h2.176v1.92h-2.18zm0 3.12h2.176v8.64h-2.18zm11.472 1.328a2.573 2.573 0 01.292.876 8.968 8.968 0 01.06 1.156v5.28h-1.9V11.1a3.517 3.517 0 01-1.264.992 4.149 4.149 0 01-1.68.3 3.243 3.243 0 01-1.548-.348 2.416 2.416 0 01-.992-.948 2.646 2.646 0 01-.34-1.328 2.768 2.768 0 01.44-1.592 2.866 2.866 0 011.448-1.016 8.252 8.252 0 011.368-.356q.808-.148 2.328-.372a1.209 1.209 0 00-.444-.892 1.9 1.9 0 00-1.14-.284 2.254 2.254 0 00-1.048.256 1.352 1.352 0 00-.68.8l-1.976-.62a3.218 3.218 0 011.264-1.768 4.163 4.163 0 012.436-.648q2.552 0 3.376 1.568zm-2.032 4.688a3.34 3.34 0 00.224-1.336q-1.128.192-1.656.3a6.187 6.187 0 00-.888.248 1.853 1.853 0 00-.684.428.815.815 0 00-.212.564.829.829 0 00.324.692 1.419 1.419 0 00.892.252 2.249 2.249 0 00.968-.2 2.218 2.218 0 00.668-.46 2.011 2.011 0 00.364-.488zm4.624-9.136h2.176v11.76h-2.176zM47.832 28.881a5.669 5.669 0 01-2.308-.456 4.273 4.273 0 01-1.692-1.3 4.258 4.258 0 01-.832-2l2.272-.336a2.728 2.728 0 00.552 1.116 2.528 2.528 0 00.948.708 3.005 3.005 0 001.2.24 3.247 3.247 0 001.056-.172 1.978 1.978 0 00.82-.508 1.118 1.118 0 00.316-.792 1 1 0 00-.248-.672 1.863 1.863 0 00-.872-.48l-2.984-.884a6.151 6.151 0 01-1.2-.472 2.758 2.758 0 01-.976-.912 2.815 2.815 0 01-.428-1.624 3.14 3.14 0 01.568-1.9 3.4 3.4 0 011.536-1.164 5.838 5.838 0 012.192-.376 5.088 5.088 0 013 .892 4.259 4.259 0 011.608 2.484l-2.352.4a2.075 2.075 0 00-.484-.952 2.3 2.3 0 00-.848-.592 2.745 2.745 0 00-1.044-.2 2.674 2.674 0 00-.936.16 1.705 1.705 0 00-.7.456.992.992 0 00-.264.68.873.873 0 00.416.776 3.834 3.834 0 001.12.456l2 .544a9.7 9.7 0 011.516.536 3.112 3.112 0 011.164.96 2.747 2.747 0 01.5 1.72 3.178 3.178 0 01-.644 2.012 3.9 3.9 0 01-1.7 1.24 6.218 6.218 0 01-2.272.412zm8.248-3.952a2.317 2.317 0 00.636 1.424 1.919 1.919 0 001.388.5 2.06 2.06 0 001.092-.28 1.779 1.779 0 00.7-.808l2.176.624a3.914 3.914 0 01-.9 1.34 4.011 4.011 0 01-1.344.86 4.348 4.348 0 01-1.592.3 4.712 4.712 0 01-2.332-.568 4.059 4.059 0 01-1.592-1.584 4.6 4.6 0 01-.572-2.3 5.2 5.2 0 01.556-2.452 4.014 4.014 0 011.548-1.64 4.4 4.4 0 012.264-.58 4.134 4.134 0 012.168.552 3.62 3.62 0 011.412 1.568 5.414 5.414 0 01.492 2.384q0 .216-.032.664zm2.12-3.28a1.9 1.9 0 00-2.064 1.664h3.808a2.052 2.052 0 00-.532-1.268 1.7 1.7 0 00-1.212-.396zm8.592-1.232a3.232 3.232 0 011.728-.448 3.523 3.523 0 01.5.032v2.032a2.032 2.032 0 00-.616-.08 2.49 2.49 0 00-1.08.224 1.913 1.913 0 00-.88.784 2.465 2.465 0 00-.3 1.264v4.416h-2.2v-8.64h1.916v1.39a2.487 2.487 0 01.932-.974zm2.944-.416h2.176l2.048 5.984 2.048-5.984h2.176l-3.136 8.64h-2.176zm10.048-3.12h2.176v1.92h-2.176zm0 3.12h2.176v8.64h-2.176zm8.384 8.88a4.3 4.3 0 01-2.284-.592 3.9 3.9 0 01-1.488-1.628 5.177 5.177 0 01-.516-2.34 5.066 5.066 0 01.532-2.348 3.967 3.967 0 011.512-1.624 4.338 4.338 0 012.276-.588 4.576 4.576 0 011.82.348 3.465 3.465 0 011.344 1 3.6 3.6 0 01.724 1.532l-2.176.576a2.015 2.015 0 00-.664-1.044 1.674 1.674 0 00-1.08-.38 1.707 1.707 0 00-1.488.7 3.09 3.09 0 00-.5 1.832 3.008 3.008 0 00.512 1.844 1.727 1.727 0 001.472.684 1.7 1.7 0 001.1-.32 1.941 1.941 0 00.6-.976l2.224.464a3.7 3.7 0 01-1.392 2.12 4.186 4.186 0 01-2.528.74zm7.144-3.952a2.317 2.317 0 00.636 1.424 1.919 1.919 0 001.388.5 2.06 2.06 0 001.092-.28 1.779 1.779 0 00.7-.808l2.176.624a3.914 3.914 0 01-.9 1.34 4.011 4.011 0 01-1.344.86 4.348 4.348 0 01-1.592.3 4.712 4.712 0 01-2.332-.568 4.059 4.059 0 01-1.592-1.584 4.6 4.6 0 01-.572-2.3 5.2 5.2 0 01.556-2.452 4.014 4.014 0 011.548-1.64 4.4 4.4 0 012.264-.58 4.134 4.134 0 012.168.552 3.62 3.62 0 011.412 1.568 5.414 5.414 0 01.492 2.384q0 .216-.032.664zm2.12-3.28a1.9 1.9 0 00-2.064 1.664h3.808a2.052 2.052 0 00-.532-1.268 1.7 1.7 0 00-1.212-.396zm9.12 7.232a4.354 4.354 0 01-2.636-.736 3.078 3.078 0 01-1.22-2.1l2.224-.336a1.546 1.546 0 00.6.956 1.97 1.97 0 001.188.34 1.56 1.56 0 00.908-.228.734.734 0 00.324-.636.61.61 0 00-.132-.42 1.365 1.365 0 00-.544-.292q-.412-.144-1.4-.408a7.609 7.609 0 01-1.7-.608 2.279 2.279 0 01-.9-.8 2.161 2.161 0 01-.28-1.136 2.477 2.477 0 01.424-1.44 2.7 2.7 0 011.2-.948 4.589 4.589 0 011.816-.332 4.849 4.849 0 011.8.312 3.11 3.11 0 011.272.892 2.668 2.668 0 01.6 1.356l-2.224.4a1.08 1.08 0 00-.416-.76 1.785 1.785 0 00-.976-.328l-.168-.008a1.563 1.563 0 00-.844.2.615.615 0 00-.316.544.494.494 0 00.16.38 1.854 1.854 0 00.624.3q.464.156 1.52.42a6.486 6.486 0 011.584.6 2.261 2.261 0 01.864.812 2.273 2.273 0 01.272 1.152 2.671 2.671 0 01-.432 1.524 2.707 2.707 0 01-1.248.984 5.016 5.016 0 01-1.944.344zm-71.551.12h-35v-29h11.116l13.924 28.4V.001h9.96v29z" fill="#fff"/></svg>