<svg xmlns="http://www.w3.org/2000/svg" width="50" height="49.556"><defs><style>.a{fill:#0845a7}</style></defs><path class="a" d="M33.128 18.252a1.5 1.5 0 001.384-.98 1.466 1.466 0 00-.514-1.653 1.539 1.539 0 00-1.663-.1 1.46 1.46 0 00.794 2.729zM13.816 8.068a4.408 4.408 0 00-4.425-4.272 4.39 4.39 0 00-4.257 5.6l-4.561 3.5a1.464 1.464 0 101.782 2.323l4.483-3.44a4.461 4.461 0 005.677-.478 4.486 4.486 0 00.391-.442l4.632 1.77a16.249 16.249 0 01.929-2.779zm-3.358 1.145a1.542 1.542 0 01-1.675.317 1.461 1.461 0 01.2-2.758 1.538 1.538 0 011.619.548 1.448 1.448 0 01-.143 1.893zm19.443 4.539a4.358 4.358 0 013.094-1.35 4.4 4.4 0 011.939.388l6.317-6.5a4.373 4.373 0 01.253-4.242 16.476 16.476 0 00-23.037 7.8l11.13 4.254a4.488 4.488 0 01.3-.348zm0 0"/><path d="M47.701 8.048a4.363 4.363 0 01-2.454.732 4.409 4.409 0 01-1.921-.428l-6.275 6.461a4.42 4.42 0 11-8.382 2.078v-.013l-11.13-4.254a16.586 16.586 0 00-.446 3.83 16.454 16.454 0 1030.609-8.407zm0 0" fill="#34a1fe"/><path class="a" d="M43.932 3.685a1.476 1.476 0 001.1 2.156 1.549 1.549 0 00.943-.169 16.682 16.682 0 00-2.048-1.987zm0 0"/><path class="a" d="M44.179 3.363a1.538 1.538 0 011.777-.268 1.48 1.48 0 01.734 1.7 1.509 1.509 0 01-.71.879 16.5 16.5 0 011.724 2.374 4.567 4.567 0 00.669-.547 4.409 4.409 0 00-6.248-6.222 4.42 4.42 0 00-.618.764 16.326 16.326 0 012.428 1.641 1.475 1.475 0 01.247-.322zM.444 45.313l17.324-17.324 4.243 4.243L4.687 49.556z"/></svg>