<svg xmlns="http://www.w3.org/2000/svg" width="176" height="176"><defs><clipPath id="a"><rect width="176" height="176" rx="4" transform="translate(708 3178)" fill="#34a1fe"/></clipPath></defs><g transform="translate(-708 -3178)" clip-path="url(#a)"><path d="M914.587 3352.791v-30.819h-6.848v13.7h-10.272v-78.75a3.424 3.424 0 00-3.424-3.424h-41.087a3.424 3.424 0 00-3.424 3.424v78.75h-17.12v6.848h75.326v6.852h-75.325v6.848h78.75a3.424 3.424 0 003.424-3.429zm-23.968-17.119H856.38v-75.326h34.239zm-154.076-47.935H729.7v-13.7h6.848zm99.293 27.391v-54.782h-20.543v-6.848h23.967a3.424 3.424 0 013.424 3.424v61.63a3.424 3.424 0 01-3.424 3.424h-6.848v-6.848zm68.376-134.362a3.424 3.424 0 00-3.321-2.594H729.7a3.424 3.424 0 00-3.322 2.594l-10.278 41.086a3.481 3.481 0 00-.1.8v71.932h6.848v-51.367a17.029 17.029 0 0010.272 3.433v-6.848a10.283 10.283 0 01-10.272-10.271v-3.424h13.7v-6.848h-12.739l8.56-34.239h17.252l-4.471 26.828 6.75 1.124 4.659-27.954h17.35l-2.257 27.109 6.824.568 2.305-27.675h17.393v23.967h6.848v-23.967h20.543v34.239h-13.7v6.848h13.7v3.424a10.275 10.275 0 01-15.405 8.9l-3.429 5.927a17.113 17.113 0 0022.258-4.567 17.1 17.1 0 0027.391 0 17.1 17.1 0 0027.391 0 17.094 17.094 0 0023.967 3.426v71.911h6.848v-92.475a3.445 3.445 0 00-.1-.8zm-71.8 4.254h17.393l2.853 34.239h-20.245zm20.543 44.511a10.272 10.272 0 01-20.543 0v-3.424h20.543zm3.721-44.511h17.346l5.706 34.239h-20.2zm23.67 44.511a10.272 10.272 0 01-20.543 0v-3.424h20.543zm3.471-27.391l-2.853-17.12h17.252l8.56 34.239h-20.104zm23.92 27.391a10.272 10.272 0 01-20.543 0v-3.424h20.543zm-23.967 78.75h-6.848v-20.544h6.848zm-160.65 4.105l-6.711-1.363a20.68 20.68 0 00-.409 4.105v51.359a17.139 17.139 0 0017.12 17.12h75.326a17.139 17.139 0 0017.12-17.12v-51.359a20.567 20.567 0 00-20.543-20.543H787.9v-1.765a30.954 30.954 0 0013.5-22.2h.2a10.272 10.272 0 000-20.543s-.018-11.057-.043-11.448a13.638 13.638 0 003.467-9.1v-10.27a3.424 3.424 0 00-3.424-3.424h-44.513a17.139 17.139 0 00-17.12 17.12v17.117a10.272 10.272 0 100 20.543h.2a30.956 30.956 0 0013.5 22.2v1.765h-17.124a20.385 20.385 0 00-16.435 8.214l5.478 4.112a13.6 13.6 0 0110.956-5.478h17.12v13.7a3.424 3.424 0 004.254 3.322l9.441-2.36v27.122l-20.543-3.573v-21.087h-6.847v6.848h-17.119v-10.272a13.8 13.8 0 01.274-2.743zm78.48-55.464a3.424 3.424 0 010 6.848zm-61.633 6.85a3.424 3.424 0 010-6.848zm68.478 112.989H802l-16.264-3.827 12.84-3.021h19.554a10.288 10.288 0 01-9.685 6.848zm10.272-37.663H801.6v-6.848h17.12zm-13.7-37.663a13.711 13.711 0 0113.7 13.7v10.272H801.6v-6.855h-6.85v21.087l-20.544 3.573v-27.123l9.441 2.36a3.424 3.424 0 004.254-3.322v-13.7zm-27.537 8.414l3.575-3.575v4.469zm17.27-65.289l-.939-1.565c.316-.058.63-.123.939-.2zm-47.935-4.758v-6.848a10.283 10.283 0 0110.272-10.271h41.087v6.848a6.856 6.856 0 01-6.848 6.848h-37.663a3.424 3.424 0 00-2.936 1.662l-3.912 6.52zm0 27.391v-9.321l8.785-14.646h30.362l8.788 14.646v9.323a23.968 23.968 0 11-47.935 0zm13.7 43.55v-4.471l3.575 3.575zm0-14.152v-.342a30.852 30.852 0 0020.543 0v.342l-10.276 10.271zm37.958 49.353h20.248v17.12h-20.547a3.41 3.41 0 00-.784.091l-57.819 13.6h-6.451a10.283 10.283 0 01-10.272-10.272v-7.392zm-55.374 0l7.7 1.34-27.951 4.862v-6.2zm-3.128-13.7v6.848h-17.123v-6.848zm20.543-6.848v6.848h-6.851v-6.848zm10.272-44.813a21.913 21.913 0 01-12.171-3.7l3.8-5.7a15.054 15.054 0 0016.745 0l3.8 5.7a21.913 21.913 0 01-12.178 3.704zm-11.986-16.811a5.136 5.136 0 115.136-5.136 5.136 5.136 0 01-5.136 5.136zm18.83-5.138a5.136 5.136 0 115.136 5.136 5.136 5.136 0 01-5.136-5.136z" fill="#fff" opacity=".15"/></g></svg>