<svg xmlns="http://www.w3.org/2000/svg" width="176" height="176"><defs><clipPath id="a"><rect width="176" height="176" rx="4" transform="translate(1108 2896)" fill="#34a1fe"/></clipPath></defs><g transform="translate(-1108 -2896)" clip-path="url(#a)"><path d="M1244.548 2942.143a58.558 58.558 0 00-90.6 71.423 58.706 58.706 0 0022.638 23.087 14.18 14.18 0 017.465 12.326v23.431a9.091 9.091 0 009.08 9.08h.2v3.289a9.091 9.091 0 009.08 9.08h6.186a9.091 9.091 0 009.08-9.08v-3.292h.2a9.091 9.091 0 009.08-9.08v-22.936a15.057 15.057 0 017.831-13.02 58.5 58.5 0 009.763-94.308zm-32.66 142.636a3.3 3.3 0 01-3.293 3.3h-6.186a3.3 3.3 0 01-3.291-3.3v-3.292h12.77zm9.279-21.453h-.2a2.894 2.894 0 000 5.788h.2v3.292a3.3 3.3 0 01-3.292 3.292h-24.746a3.3 3.3 0 01-3.292-3.292v-3.292h18.758a2.894 2.894 0 100-5.788h-18.758v-6.584h31.33zm10.723-31.891a20.783 20.783 0 00-10.723 18.031v1.486h-31.33v-1.973a20.159 20.159 0 00-10.393-17.358 53.186 53.186 0 01-7.475-5.14 9.5 9.5 0 011.845-1.089l8.018-3.563a43.1 43.1 0 0047.336 0l8.022 3.565a9.443 9.443 0 011.85 1.086 53 53 0 01-7.151 4.96zm-39.726-54.436a2.894 2.894 0 00-4.089-.164 10.4 10.4 0 01-4.3 2.566.471.471 0 01-.077.014.587.587 0 01-.049-.262v-5.724a18.779 18.779 0 0118.758-18.758h6.186a18.779 18.779 0 0118.758 18.758v.631a.186.186 0 01-.13.19c-17.33 3.424-26.022-3.028-28.954-5.96a2.894 2.894 0 00-4.092 4.092c8.987 8.987 22.1 9.149 30.084 8.19v5.23a18.758 18.758 0 11-37.516 0v-1.3a17.1 17.1 0 005.256-3.412 2.894 2.894 0 00.165-4.091zm3.86 32.621v-1.178a24.525 24.525 0 0018.957 0v1.177a9.088 9.088 0 005.393 8.3l2.3 1.021a37.349 37.349 0 01-34.338 0l2.3-1.021a9.088 9.088 0 005.388-8.299zm54.981 2.9a52.9 52.9 0 01-7.668 10 15.343 15.343 0 00-3.8-2.421l-16.817-7.474a3.3 3.3 0 01-1.955-3.009v-4.618a24.508 24.508 0 009.28-19.2v-6.5a6 6 0 003.093-5.241v-.631a24.574 24.574 0 00-24.542-24.547h-6.186a24.574 24.574 0 00-24.546 24.546v5.724a6.069 6.069 0 002.309 4.863 5.684 5.684 0 00.784.508v1.278a24.507 24.507 0 009.279 19.2v4.618a3.3 3.3 0 01-1.955 3.009l-16.817 7.474a15.316 15.316 0 00-3.8 2.421 52.8 52.8 0 0131.776-89.166 55.494 55.494 0 016.139-.343 52.175 52.175 0 0135.109 13.446 52.74 52.74 0 0110.317 66.063zm-45.503-116.22a2.894 2.894 0 00-2.895 2.894v18.559a2.894 2.894 0 105.788 0v-18.559a2.894 2.894 0 00-2.893-2.894zm86.609 86.608h-18.559a2.894 2.894 0 000 5.788h18.559a2.894 2.894 0 000-5.788zm-154.66 0h-18.557a2.894 2.894 0 100 5.788h18.557a2.894 2.894 0 100-5.788zm131.339-60.393a2.894 2.894 0 00-4.092 0l-13.124 13.123a2.894 2.894 0 104.092 4.092l13.124-13.123a2.894 2.894 0 000-4.092zm-109.359 109.358a2.894 2.894 0 00-4.092 0l-13.124 13.124a2.894 2.894 0 104.092 4.092l13.123-13.123a2.894 2.894 0 00.001-4.093zm109.36 13.124l-13.124-13.124a2.894 2.894 0 10-4.093 4.092l13.123 13.123a2.894 2.894 0 004.092-4.092zm-109.36-109.359l-13.124-13.123a2.894 2.894 0 10-4.092 4.092l13.123 13.12a2.894 2.894 0 004.092-4.092z" fill="#fff" opacity=".15"/></g></svg>